Coordinates
version=1
nRows=14
nColumns=24
inDegrees=yes

Units are S.I. units (second, meters, Newtons, ...)
Angles are in degrees.

endheader
time	pelvis_tilt	pelvis_list	pelvis_rotation	pelvis_tx	pelvis_ty	pelvis_tz	hip_flexion_r	hip_adduction_r	hip_rotation_r	knee_angle_r	ankle_angle_r	subtalar_angle_r	mtp_angle_r	hip_flexion_l	hip_adduction_l	hip_rotation_l	knee_angle_l	ankle_angle_l	subtalar_angle_l	mtp_angle_l	lumbar_extension	lumbar_bending	lumbar_rotation
      2.00000000	     43.83405497	      3.27840103	     -0.22253939	      0.68550199	      1.07890204	     -0.33562634	     27.42693786	    -13.64113060	      2.79103961	    -88.00383789	    -20.26611016	      0.00000000	      0.00000000	     22.08539849	    -12.50526210	     -5.18372265	    -67.78324266	    -14.17884375	      0.00000000	      0.00000000	      0.00000000	      0.00000000	      0.00000000
      2.01000000	     43.75485152	      3.27707113	     -0.22883739	      0.68563377	      1.07872246	     -0.33554648	     27.57264482	    -13.75722226	      3.08745331	    -88.16039604	    -20.37010449	      0.00000000	      0.00000000	     22.19189517	    -12.51003861	     -5.21084917	    -67.96665025	    -14.16934284	      0.00000000	      0.00000000	      0.00000000	      0.00000000	      0.00000000
      2.02000000	     43.67125238	      3.27881259	     -0.24378742	      0.68572897	      1.07855489	     -0.33552782	     27.70662120	    -13.85870226	      3.38480514	    -88.24650264	    -20.45588529	      0.00000000	      0.00000000	     22.29774863	    -12.51554587	     -5.25099986	    -68.14050088	    -14.16474451	      0.00000000	      0.00000000	      0.00000000	      0.00000000	      0.00000000
      2.03000000	     43.58554789	      3.28039795	     -0.26439889	      0.68581399	      1.07841493	     -0.33550302	     27.82568956	    -13.94563668	      3.68727837	    -88.26326374	    -20.50036156	      0.00000000	      0.00000000	     22.40367574	    -12.52482889	     -5.29839241	    -68.30170996	    -14.16467148	      0.00000000	      0.00000000	      0.00000000	      0.00000000	      0.00000000
      2.04000000	     43.50013406	      3.27784026	     -0.28581222	      0.68590138	      1.07829717	     -0.33543181	     27.93129404	    -14.02195484	      4.00087231	    -88.20868000	    -20.49146860	      0.00000000	      0.00000000	     22.50818279	    -12.54065226	     -5.34629141	    -68.45093433	    -14.16819564	      0.00000000	      0.00000000	      0.00000000	      0.00000000	      0.00000000
      2.05000000	     43.41566440	      3.26957732	     -0.30502356	      0.68597753	      1.07818584	     -0.33533209	     28.02685276	    -14.09082219	      4.32708560	    -88.08006256	    -20.42895195	      0.00000000	      0.00000000	     22.60901743	    -12.56218918	     -5.39029400	    -68.59206720	    -14.17392460	      0.00000000	      0.00000000	      0.00000000	      0.00000000	      0.00000000
      2.06000000	     43.33192947	      3.25683372	     -0.32196654	      0.68603328	      1.07806677	     -0.33524799	     28.11564337	    -14.15377935	      4.66185798	    -87.87643838	    -20.32191070	      0.00000000	      0.00000000	     22.70556611	    -12.58585121	     -5.42928405	    -68.72903544	    -14.17978912	      0.00000000	      0.00000000	      0.00000000	      0.00000000	      0.00000000
      2.07000000	     43.24922837	      3.24167138	     -0.33805469	      0.68607742	      1.07793859	     -0.33520141	     28.19995210	    -14.21260769	      4.99884429	    -87.59999626	    -20.18464982	      0.00000000	      0.00000000	     22.79970908	    -12.60872199	     -5.46419111	    -68.86277610	    -14.18306248	      0.00000000	      0.00000000	      0.00000000	      0.00000000	      0.00000000
      2.08000000	     43.16833162	      3.22533639	     -0.35422962	      0.68611952	      1.07781249	     -0.33517880	     28.28124775	    -14.27021696	      5.33276838	    -87.25577321	    -20.03257151	      0.00000000	      0.00000000	     22.89413796	    -12.63076334	     -5.49621018	    -68.99110446	    -14.18104250	      0.00000000	      0.00000000	      0.00000000	      0.00000000	      0.00000000
      2.09000000	     43.08971419	      3.20825091	     -0.37017797	      0.68615713	      1.07769986	     -0.33515821	     28.36072044	    -14.32892909	      5.66038407	    -86.84973014	    -19.87913326	      0.00000000	      0.00000000	     22.98994714	    -12.65382578	     -5.52578311	    -69.11109756	    -14.17219124	      0.00000000	      0.00000000	      0.00000000	      0.00000000	      0.00000000
      2.10000000	     43.01352104	      3.19061055	     -0.38481555	      0.68618594	      1.07760519	     -0.33513365	     28.43936980	    -14.38844703	      5.98007496	    -86.38680020	    -19.73413550	      0.00000000	      0.00000000	     23.08602801	    -12.67917933	     -5.55239710	    -69.22124283	    -14.15700541	      0.00000000	      0.00000000	      0.00000000	      0.00000000	      0.00000000
      2.11000000	     42.93981374	      3.17254183	     -0.39727732	      0.68620815	      1.07751778	     -0.33511335	     28.51721782	    -14.44625898	      6.29155608	    -85.87062917	    -19.60321227	      0.00000000	      0.00000000	     23.18033534	    -12.70653751	     -5.57473359	    -69.32157890	    -14.13797416	      0.00000000	      0.00000000	      0.00000000	      0.00000000	      0.00000000
      2.12000000	     42.86887834	      3.15384251	     -0.40751563	      0.68622728	      1.07741974	     -0.33510080	     28.59311051	    -14.50002142	      6.59534437	    -85.30478845	    -19.48798153	      0.00000000	      0.00000000	     23.27119462	    -12.73500092	     -5.59118613	    -69.41253441	    -14.11860281	      0.00000000	      0.00000000	      0.00000000	      0.00000000	      0.00000000
      2.13000000	     42.80151509	      3.13405857	     -0.41618091	      0.68624234	      1.07731126	     -0.33508668	     28.66583379	    -14.54919675	      6.89148809	    -84.69388103	    -19.38631483	      0.00000000	      0.00000000	     23.35755711	    -12.76411856	     -5.60083294	    -69.49405195	    -14.10209022	      0.00000000	      0.00000000	      0.00000000	      0.00000000	      0.00000000
